<?xml version="1.0" encoding="UTF-8" ?>
<svg version="1.1" width="16" height="16" xmlns="http://www.w3.org/2000/svg" shape-rendering="crispEdges">
<rect x="5" y="1" width="5" height="1" fill="#000000" />
<rect x="3" y="2" width="2" height="1" fill="#000000" />
<rect x="5" y="2" width="5" height="2" fill="#FFFFFF" />
<rect x="10" y="2" width="2" height="1" fill="#000000" />
<rect x="2" y="3" width="1" height="2" fill="#000000" />
<rect x="3" y="3" width="2" height="2" fill="#FFFFFF" />
<rect x="10" y="3" width="2" height="2" fill="#FFFFFF" />
<rect x="12" y="3" width="1" height="2" fill="#000000" />
<rect x="5" y="4" width="5" height="1" fill="#000000" />
<rect x="1" y="5" width="1" height="5" fill="#000000" />
<rect x="2" y="5" width="2" height="5" fill="#FFFFFF" />
<rect x="4" y="5" width="1" height="5" fill="#000000" />
<rect x="10" y="5" width="2" height="1" fill="#000000" />
<rect x="10" y="9" width="2" height="1" fill="#000000" />
<rect x="2" y="10" width="1" height="2" fill="#000000" />
<rect x="3" y="10" width="2" height="2" fill="#FFFFFF" />
<rect x="5" y="10" width="5" height="1" fill="#000000" />
<rect x="10" y="10" width="2" height="2" fill="#FFFFFF" />
<rect x="12" y="10" width="1" height="2" fill="#000000" />
<rect x="5" y="11" width="5" height="2" fill="#FFFFFF" />
<rect x="3" y="12" width="2" height="1" fill="#000000" />
<rect x="10" y="12" width="2" height="1" fill="#000000" />
<rect x="5" y="13" width="5" height="1" fill="#000000" />
</svg>