<?xml version="1.0" encoding="UTF-8" ?>
<svg version="1.1" width="32" height="32" xmlns="http://www.w3.org/2000/svg" shape-rendering="crispEdges">
<rect x="14" y="0" width="1" height="1" fill="#000000" />
<rect x="13" y="1" width="1" height="1" fill="#000000" />
<rect x="14" y="1" width="1" height="3" fill="#639BFF" />
<rect x="15" y="1" width="1" height="2" fill="#000000" />
<rect x="12" y="2" width="1" height="1" fill="#000000" />
<rect x="13" y="2" width="1" height="2" fill="#639BFF" />
<rect x="11" y="3" width="1" height="2" fill="#000000" />
<rect x="12" y="3" width="1" height="2" fill="#639BFF" />
<rect x="15" y="3" width="1" height="5" fill="#639BFF" />
<rect x="16" y="3" width="1" height="6" fill="#000000" />
<rect x="13" y="4" width="1" height="1" fill="#5B6EE1" />
<rect x="14" y="4" width="1" height="3" fill="#000000" />
<rect x="10" y="5" width="1" height="7" fill="#000000" />
<rect x="11" y="5" width="1" height="10" fill="#639BFF" />
<rect x="12" y="5" width="1" height="1" fill="#5B6EE1" />
<rect x="13" y="5" width="1" height="4" fill="#000000" />
<rect x="12" y="6" width="1" height="4" fill="#000000" />
<rect x="14" y="7" width="1" height="3" fill="#639BFF" />
<rect x="15" y="8" width="1" height="1" fill="#5B6EE1" />
<rect x="13" y="9" width="1" height="2" fill="#639BFF" />
<rect x="15" y="9" width="1" height="2" fill="#000000" />
<rect x="12" y="10" width="1" height="9" fill="#639BFF" />
<rect x="14" y="10" width="1" height="1" fill="#5B6EE1" />
<rect x="13" y="11" width="1" height="1" fill="#5B6EE1" />
<rect x="14" y="11" width="1" height="1" fill="#000000" />
<rect x="9" y="12" width="1" height="1" fill="#000000" />
<rect x="10" y="12" width="1" height="3" fill="#639BFF" />
<rect x="13" y="12" width="1" height="4" fill="#000000" />
<rect x="8" y="13" width="1" height="1" fill="#000000" />
<rect x="9" y="13" width="1" height="3" fill="#639BFF" />
<rect x="7" y="14" width="1" height="1" fill="#000000" />
<rect x="8" y="14" width="1" height="3" fill="#639BFF" />
<rect x="6" y="15" width="1" height="2" fill="#000000" />
<rect x="7" y="15" width="1" height="7" fill="#639BFF" />
<rect x="10" y="15" width="1" height="1" fill="#5B6EE1" />
<rect x="11" y="15" width="1" height="2" fill="#000000" />
<rect x="14" y="15" width="2" height="1" fill="#000000" />
<rect x="9" y="16" width="1" height="1" fill="#5B6EE1" />
<rect x="10" y="16" width="1" height="2" fill="#000000" />
<rect x="13" y="16" width="3" height="2" fill="#639BFF" />
<rect x="16" y="16" width="1" height="1" fill="#000000" />
<rect x="5" y="17" width="1" height="3" fill="#000000" />
<rect x="6" y="17" width="1" height="3" fill="#639BFF" />
<rect x="8" y="17" width="1" height="1" fill="#5B6EE1" />
<rect x="9" y="17" width="1" height="5" fill="#000000" />
<rect x="11" y="17" width="1" height="4" fill="#639BFF" />
<rect x="16" y="17" width="1" height="3" fill="#639BFF" />
<rect x="17" y="17" width="1" height="1" fill="#000000" />
<rect x="8" y="18" width="1" height="3" fill="#000000" />
<rect x="10" y="18" width="1" height="3" fill="#639BFF" />
<rect x="13" y="18" width="1" height="3" fill="#639BFF" />
<rect x="14" y="18" width="1" height="2" fill="#000000" />
<rect x="15" y="18" width="1" height="1" fill="#639BFF" />
<rect x="17" y="18" width="1" height="4" fill="#639BFF" />
<rect x="18" y="18" width="1" height="5" fill="#000000" />
<rect x="12" y="19" width="1" height="3" fill="#000000" />
<rect x="15" y="19" width="1" height="4" fill="#000000" />
<rect x="6" y="20" width="1" height="2" fill="#000000" />
<rect x="14" y="20" width="1" height="5" fill="#639BFF" />
<rect x="16" y="20" width="1" height="2" fill="#000000" />
<rect x="8" y="21" width="1" height="2" fill="#639BFF" />
<rect x="10" y="21" width="1" height="2" fill="#000000" />
<rect x="11" y="21" width="1" height="1" fill="#5B6EE1" />
<rect x="13" y="21" width="1" height="3" fill="#000000" />
<rect x="7" y="22" width="1" height="1" fill="#000000" />
<rect x="9" y="22" width="1" height="2" fill="#639BFF" />
<rect x="11" y="22" width="1" height="2" fill="#000000" />
<rect x="12" y="22" width="1" height="1" fill="#5B6EE1" />
<rect x="16" y="22" width="1" height="1" fill="#639BFF" />
<rect x="17" y="22" width="1" height="1" fill="#5B6EE1" />
<rect x="8" y="23" width="1" height="1" fill="#000000" />
<rect x="10" y="23" width="1" height="1" fill="#5B6EE1" />
<rect x="12" y="23" width="1" height="1" fill="#000000" />
<rect x="15" y="23" width="1" height="5" fill="#639BFF" />
<rect x="16" y="23" width="1" height="1" fill="#5B6EE1" />
<rect x="17" y="23" width="1" height="1" fill="#000000" />
<rect x="9" y="24" width="2" height="1" fill="#000000" />
<rect x="11" y="24" width="3" height="1" fill="#639BFF" />
<rect x="16" y="24" width="1" height="5" fill="#000000" />
<rect x="9" y="25" width="1" height="1" fill="#000000" />
<rect x="11" y="25" width="4" height="1" fill="#000000" />
<rect x="8" y="26" width="1" height="1" fill="#000000" />
<rect x="9" y="26" width="1" height="1" fill="#639BFF" />
<rect x="10" y="26" width="1" height="1" fill="#000000" />
<rect x="14" y="26" width="1" height="2" fill="#000000" />
<rect x="7" y="27" width="1" height="2" fill="#000000" />
<rect x="8" y="27" width="1" height="2" fill="#639BFF" />
<rect x="9" y="27" width="1" height="1" fill="#FFFFFF" />
<rect x="10" y="27" width="1" height="1" fill="#639BFF" />
<rect x="11" y="27" width="1" height="3" fill="#000000" />
<rect x="9" y="28" width="1" height="1" fill="#639BFF" />
<rect x="10" y="28" width="1" height="1" fill="#5B6EE1" />
<rect x="12" y="28" width="2" height="1" fill="#000000" />
<rect x="14" y="28" width="1" height="1" fill="#639BFF" />
<rect x="15" y="28" width="1" height="1" fill="#5B6EE1" />
<rect x="8" y="29" width="1" height="1" fill="#000000" />
<rect x="9" y="29" width="1" height="1" fill="#5B6EE1" />
<rect x="10" y="29" width="1" height="1" fill="#000000" />
<rect x="12" y="29" width="2" height="1" fill="#639BFF" />
<rect x="14" y="29" width="1" height="1" fill="#5B6EE1" />
<rect x="15" y="29" width="1" height="1" fill="#000000" />
<rect x="9" y="30" width="1" height="1" fill="#000000" />
<rect x="10" y="30" width="2" height="1" fill="#639BFF" />
<rect x="12" y="30" width="1" height="1" fill="#5B6EE1" />
<rect x="13" y="30" width="2" height="1" fill="#000000" />
<rect x="10" y="31" width="3" height="1" fill="#000000" />
</svg>