<?xml version="1.0" encoding="UTF-8" ?>
<svg version="1.1" width="16" height="16" xmlns="http://www.w3.org/2000/svg" shape-rendering="crispEdges">
<rect x="4" y="1" width="12" height="1" fill="#DCB253" />
<rect x="4" y="2" width="1" height="8" fill="#DCB253" />
<rect x="5" y="2" width="10" height="2" fill="#F16572" />
<rect x="15" y="2" width="1" height="11" fill="#DCB253" />
<rect x="5" y="4" width="1" height="9" fill="#F16572" />
<rect x="6" y="4" width="8" height="1" fill="#DCB253" />
<rect x="14" y="4" width="1" height="8" fill="#F16572" />
<rect x="6" y="5" width="1" height="9" fill="#DCB253" />
<rect x="13" y="5" width="1" height="4" fill="#DCB253" />
<rect x="11" y="8" width="2" height="1" fill="#DCB253" />
<rect x="2" y="9" width="2" height="1" fill="#DCB253" />
<rect x="10" y="9" width="1" height="1" fill="#DCB253" />
<rect x="11" y="9" width="3" height="1" fill="#F16572" />
<rect x="1" y="10" width="1" height="1" fill="#DCB253" />
<rect x="2" y="10" width="3" height="1" fill="#F16572" />
<rect x="9" y="10" width="1" height="3" fill="#DCB253" />
<rect x="10" y="10" width="1" height="3" fill="#F16572" />
<rect x="11" y="10" width="1" height="2" fill="#FFFFFF" />
<rect x="12" y="10" width="2" height="3" fill="#F16572" />
<rect x="0" y="11" width="1" height="3" fill="#DCB253" />
<rect x="1" y="11" width="1" height="3" fill="#F16572" />
<rect x="2" y="11" width="1" height="2" fill="#FFFFFF" />
<rect x="3" y="11" width="2" height="3" fill="#F16572" />
<rect x="11" y="12" width="1" height="1" fill="#F16572" />
<rect x="14" y="12" width="1" height="1" fill="#C32533" />
<rect x="2" y="13" width="1" height="1" fill="#F16572" />
<rect x="5" y="13" width="1" height="1" fill="#C32533" />
<rect x="10" y="13" width="1" height="1" fill="#DCB253" />
<rect x="11" y="13" width="3" height="1" fill="#C32533" />
<rect x="14" y="13" width="1" height="1" fill="#DCB253" />
<rect x="1" y="14" width="1" height="1" fill="#DCB253" />
<rect x="2" y="14" width="3" height="1" fill="#C32533" />
<rect x="5" y="14" width="1" height="1" fill="#DCB253" />
<rect x="11" y="14" width="3" height="1" fill="#DCB253" />
<rect x="2" y="15" width="3" height="1" fill="#DCB253" />
</svg>