<?xml version="1.0" encoding="UTF-8" ?>
<svg version="1.1" width="16" height="16" xmlns="http://www.w3.org/2000/svg" shape-rendering="crispEdges">
<rect x="2" y="0" width="3" height="1" fill="#000000" />
<rect x="1" y="1" width="1" height="1" fill="#000000" />
<rect x="2" y="1" width="3" height="1" fill="#CC5300" />
<rect x="5" y="1" width="1" height="1" fill="#000000" />
<rect x="0" y="2" width="1" height="3" fill="#000000" />
<rect x="1" y="2" width="4" height="1" fill="#DF7126" />
<rect x="5" y="2" width="1" height="1" fill="#CC5300" />
<rect x="6" y="2" width="1" height="13" fill="#000000" />
<rect x="1" y="3" width="1" height="2" fill="#DF7126" />
<rect x="2" y="3" width="1" height="2" fill="#FFFFFF" />
<rect x="3" y="3" width="3" height="3" fill="#DF7126" />
<rect x="1" y="5" width="1" height="1" fill="#000000" />
<rect x="2" y="5" width="1" height="1" fill="#DF7126" />
<rect x="2" y="6" width="2" height="1" fill="#000000" />
<rect x="4" y="6" width="2" height="1" fill="#DF7126" />
<rect x="4" y="7" width="1" height="8" fill="#000000" />
<rect x="5" y="7" width="1" height="8" fill="#DF7126" />
<rect x="5" y="15" width="1" height="1" fill="#000000" />
</svg>