<?xml version="1.0" encoding="UTF-8" ?>
<svg version="1.1" width="32" height="32" xmlns="http://www.w3.org/2000/svg" shape-rendering="crispEdges">
<rect x="15" y="2" width="3" height="1" fill="#DCB253" />
<rect x="15" y="3" width="1" height="6" fill="#DCB253" />
<rect x="16" y="3" width="2" height="2" fill="#5B6EE1" />
<rect x="18" y="3" width="1" height="1" fill="#DCB253" />
<rect x="18" y="4" width="1" height="1" fill="#5B6EE1" />
<rect x="19" y="4" width="1" height="1" fill="#DCB253" />
<rect x="16" y="5" width="1" height="22" fill="#5B6EE1" />
<rect x="17" y="5" width="2" height="1" fill="#DCB253" />
<rect x="19" y="5" width="1" height="1" fill="#5B6EE1" />
<rect x="20" y="5" width="1" height="1" fill="#DCB253" />
<rect x="17" y="6" width="1" height="3" fill="#DCB253" />
<rect x="19" y="6" width="1" height="1" fill="#DCB253" />
<rect x="20" y="6" width="1" height="1" fill="#5B6EE1" />
<rect x="21" y="6" width="1" height="1" fill="#DCB253" />
<rect x="18" y="7" width="1" height="1" fill="#DCB253" />
<rect x="19" y="7" width="1" height="1" fill="#5B6EE1" />
<rect x="20" y="7" width="1" height="1" fill="#DCB253" />
<rect x="13" y="8" width="2" height="1" fill="#DCB253" />
<rect x="18" y="8" width="1" height="1" fill="#5B6EE1" />
<rect x="19" y="8" width="1" height="1" fill="#DCB253" />
<rect x="11" y="9" width="2" height="1" fill="#DCB253" />
<rect x="13" y="9" width="3" height="1" fill="#5B6EE1" />
<rect x="17" y="9" width="1" height="1" fill="#5B6EE1" />
<rect x="18" y="9" width="1" height="1" fill="#DCB253" />
<rect x="10" y="10" width="1" height="1" fill="#DCB253" />
<rect x="11" y="10" width="2" height="1" fill="#5B6EE1" />
<rect x="13" y="10" width="3" height="1" fill="#DCB253" />
<rect x="17" y="10" width="1" height="2" fill="#DCB253" />
<rect x="9" y="11" width="1" height="1" fill="#DCB253" />
<rect x="10" y="11" width="1" height="1" fill="#5B6EE1" />
<rect x="11" y="11" width="2" height="1" fill="#DCB253" />
<rect x="15" y="11" width="1" height="1" fill="#DCB253" />
<rect x="18" y="11" width="2" height="1" fill="#DCB253" />
<rect x="8" y="12" width="1" height="6" fill="#DCB253" />
<rect x="9" y="12" width="1" height="6" fill="#5B6EE1" />
<rect x="10" y="12" width="1" height="6" fill="#DCB253" />
<rect x="14" y="12" width="1" height="1" fill="#DCB253" />
<rect x="15" y="12" width="1" height="1" fill="#5B6EE1" />
<rect x="17" y="12" width="3" height="1" fill="#5B6EE1" />
<rect x="20" y="12" width="1" height="1" fill="#DCB253" />
<rect x="13" y="13" width="1" height="1" fill="#DCB253" />
<rect x="14" y="13" width="1" height="1" fill="#5B6EE1" />
<rect x="15" y="13" width="1" height="6" fill="#DCB253" />
<rect x="17" y="13" width="3" height="1" fill="#DCB253" />
<rect x="20" y="13" width="1" height="1" fill="#5B6EE1" />
<rect x="21" y="13" width="1" height="1" fill="#DCB253" />
<rect x="12" y="14" width="1" height="3" fill="#DCB253" />
<rect x="13" y="14" width="1" height="1" fill="#5B6EE1" />
<rect x="14" y="14" width="1" height="2" fill="#DCB253" />
<rect x="17" y="14" width="1" height="5" fill="#DCB253" />
<rect x="20" y="14" width="1" height="3" fill="#DCB253" />
<rect x="21" y="14" width="1" height="3" fill="#5B6EE1" />
<rect x="22" y="14" width="1" height="3" fill="#DCB253" />
<rect x="13" y="15" width="1" height="2" fill="#639BFF" />
<rect x="14" y="16" width="1" height="1" fill="#639BFF" />
<rect x="13" y="17" width="2" height="2" fill="#DCB253" />
<rect x="19" y="17" width="1" height="1" fill="#DCB253" />
<rect x="20" y="17" width="1" height="1" fill="#5B6EE1" />
<rect x="21" y="17" width="1" height="1" fill="#DCB253" />
<rect x="9" y="18" width="1" height="1" fill="#DCB253" />
<rect x="10" y="18" width="1" height="1" fill="#5B6EE1" />
<rect x="11" y="18" width="2" height="1" fill="#DCB253" />
<rect x="18" y="18" width="1" height="1" fill="#DCB253" />
<rect x="19" y="18" width="1" height="1" fill="#5B6EE1" />
<rect x="20" y="18" width="1" height="1" fill="#DCB253" />
<rect x="10" y="19" width="1" height="1" fill="#DCB253" />
<rect x="11" y="19" width="5" height="1" fill="#5B6EE1" />
<rect x="17" y="19" width="2" height="1" fill="#5B6EE1" />
<rect x="19" y="19" width="1" height="1" fill="#DCB253" />
<rect x="11" y="20" width="5" height="1" fill="#DCB253" />
<rect x="17" y="20" width="2" height="1" fill="#DCB253" />
<rect x="15" y="21" width="1" height="6" fill="#DCB253" />
<rect x="17" y="21" width="1" height="6" fill="#DCB253" />
<rect x="10" y="23" width="3" height="1" fill="#DCB253" />
<rect x="9" y="24" width="1" height="1" fill="#DCB253" />
<rect x="10" y="24" width="3" height="1" fill="#5B6EE1" />
<rect x="13" y="24" width="1" height="1" fill="#DCB253" />
<rect x="8" y="25" width="1" height="3" fill="#DCB253" />
<rect x="9" y="25" width="1" height="3" fill="#5B6EE1" />
<rect x="10" y="25" width="1" height="2" fill="#FFFFFF" />
<rect x="11" y="25" width="3" height="3" fill="#5B6EE1" />
<rect x="14" y="25" width="1" height="3" fill="#DCB253" />
<rect x="10" y="27" width="1" height="1" fill="#5B6EE1" />
<rect x="15" y="27" width="1" height="1" fill="#639BFF" />
<rect x="16" y="27" width="1" height="1" fill="#DCB253" />
<rect x="9" y="28" width="1" height="1" fill="#DCB253" />
<rect x="10" y="28" width="5" height="1" fill="#639BFF" />
<rect x="15" y="28" width="1" height="1" fill="#DCB253" />
<rect x="10" y="29" width="5" height="1" fill="#DCB253" />
</svg>